Coordinates
version=1
nRows=65
nColumns=12
inDegrees=yes

Units are S.I. units (second, meters, Newtons, ...)
Angles are in degrees

endheader
time	SC_y	SC_z	SC_x	AC_y	AC_z	AC_x	GH_y	GH_z	GH_yy	EL_x	PS_y
       0.0              -52.77          4.784          81.03           42.2         -10.55          11.53         -67.09          40.92          57.15          29.42          98.62
   0.02975              -52.77          4.789          81.02           42.2         -10.55          11.53          -67.1          40.92          57.12          29.43          98.62
   0.05949              -52.76          4.793          81.01           42.2         -10.55          11.53         -67.11          40.92          57.09          29.45          98.63
   0.08924              -52.76          4.798          80.99          42.19         -10.55          11.53         -67.12          40.93          57.06          29.46          98.63
     0.119              -52.76          4.803          80.98          42.19         -10.55          11.53         -67.14          40.93          57.03          29.48          98.63
    0.1487              -52.75          4.808          80.97          42.19         -10.55          11.53         -67.15          40.93          56.99          29.49          98.64
    0.1785              -52.75          4.813          80.95          42.19         -10.54          11.53         -67.16          40.93          56.95          29.51          98.64
    0.2082              -52.74           4.82          80.94          42.18         -10.54          11.53         -67.18          40.93          56.91          29.53          98.64
     0.238              -52.74          4.826          80.92          42.18         -10.54          11.53          -67.2          40.93          56.86          29.55          98.65
    0.2677              -52.73          4.833          80.91          42.18         -10.54          11.53         -67.22          40.93          56.82          29.57          98.65
    0.2975              -52.73           4.84          80.89          42.18         -10.53          11.53         -67.23          40.94          56.76          29.59          98.66
    0.3272              -52.72          4.848          80.87          42.17         -10.53          11.53         -67.26          40.94          56.71          29.61          98.66
     0.357              -52.71          4.857          80.85          42.17         -10.53          11.53         -67.28          40.94          56.65          29.64          98.67
    0.3867              -52.71          4.866          80.82          42.17         -10.52          11.53          -67.3          40.94          56.58          29.67          98.68
    0.4164               -52.7          4.876           80.8          42.16         -10.52          11.53         -67.33          40.94          56.51           29.7          98.68
    0.4462              -52.69          4.887          80.77          42.16         -10.52          11.53         -67.36          40.95          56.44          29.73          98.69
    0.4759              -52.68          4.899          80.74          42.15         -10.51          11.53         -67.39          40.95          56.35          29.77           98.7
    0.5057              -52.67          4.912          80.71          42.15         -10.51          11.53         -67.42          40.95          56.26          29.81          98.71
    0.5354              -52.66          4.926          80.67          42.14          -10.5          11.53         -67.46          40.96          56.16          29.85          98.72
    0.5652              -52.65          4.942          80.63          42.14          -10.5          11.53          -67.5          40.96          56.06           29.9          98.73
    0.5949              -52.63          4.959          80.59          42.13         -10.49          11.53         -67.55          40.96          55.94          29.95          98.74
    0.6247              -52.62          4.978          80.54          42.12         -10.48          11.53         -67.59          40.97          55.81           30.0          98.76
    0.6544               -52.6          4.998          80.49          42.11         -10.48          11.53         -67.65          40.97          55.66          30.07          98.77
    0.6842              -52.58          5.021          80.43           42.1         -10.47          11.53         -67.71          40.98           55.5          30.13          98.79
    0.7139              -52.56          5.047          80.37          42.09         -10.46          11.54         -67.78          40.98          55.32          30.21           98.8
    0.7437              -52.54          5.075           80.3          42.08         -10.45          11.54         -67.85          40.99          55.13           30.3          98.82
    0.7734              -52.52          5.107          80.22          42.07         -10.44          11.54         -67.93           41.0           54.9          30.39          98.85
    0.8032              -52.49          5.143          80.13          42.06         -10.42          11.54         -68.03           41.0          54.65           30.5          98.87
    0.8329              -52.46          5.184          80.03          42.04         -10.41          11.54         -68.13          41.01          54.37          30.62           98.9
    0.8626              -52.42           5.23          79.91          42.02         -10.39          11.54         -68.25          41.02          54.05          30.76          98.93
    0.8924              -52.38          5.282          79.78           42.0         -10.37          11.54         -68.39          41.04          53.68          30.92          98.97
    0.9221              -52.33          5.342          79.63          41.98         -10.35          11.54         -68.55          41.05          53.26           31.1          99.01
    0.9519              -52.28          5.412          79.46          41.95         -10.32          11.55         -68.73          41.07          52.78          31.31          99.06
    0.9816              -52.21          5.493          79.25          41.92         -10.29          11.55         -68.94          41.08          52.22          31.55          99.12
     1.011              -52.14          5.587          79.02          41.88         -10.26          11.55         -69.19          41.11          51.56          31.84          99.18
     1.041              -52.05          5.699          78.74          41.84         -10.22          11.55         -69.48          41.13          50.78          32.18          99.26
     1.071              -51.95          5.831           78.4          41.79         -10.17          11.56         -69.83          41.16          49.86          32.57          99.35
     1.101              -51.82           5.99          78.01          41.72         -10.11          11.56         -70.24           41.2          48.75          33.05          99.47
      1.13              -51.67          6.182          77.53          41.65         -10.04          11.57         -70.75          41.24          47.41          33.63           99.6
      1.16              -51.49          6.417          76.94          41.55         -9.957          11.57         -71.36          41.29          45.77          34.34          99.77
      1.19              -51.26          6.707          76.21          41.44         -9.851          11.58         -72.12          41.36          43.76          35.21          99.97
      1.22              -50.98          7.068          75.31           41.3         -9.718          11.59         -73.07          41.44          41.24           36.3          100.2
     1.249              -50.62          7.523          74.17          41.12         -9.552          11.61         -74.26          41.55          38.07          37.67          100.5
     1.279              -50.17          8.102          72.72          40.89          -9.34          11.62         -75.77          41.68          34.03          39.41          100.9
     1.309              -49.58          8.842          70.86           40.6         -9.069          11.64         -77.71          41.85          28.87          41.64          101.5
     1.339              -48.84          9.792          68.48          40.22         -8.722          11.67          -80.2          42.06          22.25          44.51          102.1
     1.368              -47.88          11.01          65.44          39.74         -8.277           11.7         -83.37          42.34          13.79          48.16          103.0
     1.398              -46.69          12.53          61.62          39.14         -7.719          11.75         -87.37          42.69          3.151          52.76          104.1
     1.428              -45.22          14.39          56.96          38.41         -7.038           11.8         -92.24          43.11         -9.812          58.36          105.4
     1.458              -43.53          16.55          51.56          37.56         -6.249          11.86         -97.88           43.6         -24.84          64.86          106.9
     1.487               -41.7          18.88          45.72          36.63         -5.395          11.93         -104.0          44.13         -41.11          71.89          108.5
     1.517              -39.86          21.22          39.87          35.71         -4.541           12.0         -110.1          44.66         -57.38          78.92          110.2
     1.547              -38.17          23.37          34.47          34.86         -3.752          12.06         -115.7          45.15          -72.4          85.42          111.7
     1.577              -36.71          25.23          29.81          34.13         -3.071          12.11         -120.6          45.58         -85.37          91.02          113.0
     1.606              -35.51          26.76          25.99          33.53         -2.513          12.15         -124.6          45.92          -96.0          95.62          114.0
     1.636              -34.56          27.97          22.95          33.05         -2.069          12.19         -127.8           46.2         -104.5          99.27          114.9
     1.666              -33.81          28.92          20.57          32.67         -1.721          12.21         -130.3          46.42         -111.1          102.1          115.6
     1.696              -33.23          29.66          18.71          32.38          -1.45          12.24         -132.2          46.58         -116.2          104.4          116.1
     1.725              -32.78          30.24          17.27          32.15         -1.238          12.25         -133.7          46.72         -120.3          106.1          116.5
     1.755              -32.42           30.7          16.13          31.97         -1.072          12.26         -134.9          46.82         -123.5          107.5          116.8
     1.785              -32.13          31.06          15.22          31.83        -0.9397          12.27         -135.9           46.9         -126.0          108.6          117.1
     1.815              -31.91          31.35           14.5          31.72        -0.8337          12.28         -136.6          46.97         -128.0          109.4          117.3
     1.844              -31.72          31.58          13.91          31.62        -0.7478          12.29         -137.2          47.02         -129.6          110.1          117.4
     1.874              -31.57          31.78          13.43          31.55        -0.6775           12.3         -137.7          47.06         -131.0          110.7          117.6
     1.904              -31.45          31.93          13.03          31.48        -0.6194           12.3         -138.1           47.1         -132.1          111.2          117.7
